<svg version="1.2" xmlns="http://www.w3.org/2000/svg" viewBox="0 0 1024 1024" width="1024" height="1024"><style>.a{fill:none;stroke:#808080;stroke-width:2}.b{fill:none;stroke:#7c5f2d;stroke-width:2}.c{fill:none;stroke:#732247;stroke-width:2}.d{fill:none;stroke:#4c2962;stroke-width:2}.e{fill:none;stroke:#342e6f;stroke-width:2}.f{fill:none;stroke:#05416d;stroke-width:2}.g{fill:none;stroke:#016360;stroke-width:2}.h{fill:#000101}.i{fill:#f7bc59}.j{fill:#e6428d}.k{fill:#fff}.l{fill:#9850c3}.m{fill:#675add}.n{fill:#0a81d9}.o{fill:#02c5bf}</style><path class="a" d="m571.1 291q-41-25.4-84.7-52.6-26.9-16.7-54.2-33.8-17.1-10.6-23.9-14.1-9.2-4.7-23.2-7.3-6.7-1.2-24.2-1.1-30.4 0.1-47.4 0-14.2 0-19 0.6-29.5 3.9-50.4 23.5-22.2 20.8-27.5 50-1.6 8.7-1.6 27.2 0.1 124.6-0.1 455.4 0 19.9 1.5 28.3c6.7 36.6 35.2 65.9 72 73.3q8.3 1.6 23.3 1.5 27.9-0.1 49.2 0 14.2 0.1 21.6-1.3 11.1-2.1 20.9-6.1 4.9-1.9 27.9-16.6 34.1-21.7 39.8-25.4c0.3-0.2 0.6-0.1 0.7 0.2 8.4 30.7 34.3 57.1 67.3 57.4 28.4 0.2 51.8-18.2 58.8-45.8q4.9-19.7-0.3-39c-4-14.7-10.5-31.1-14.6-42.5-0.1-0.2 0-0.5 0.2-0.6l24.4-15.5c0.3-0.3 0.8-0.2 1 0.2q13.5 21.4 26.4 40.8c14.1 21.3 37 34.2 62.7 31.5 28.6-3 49.6-23.6 54.1-51.9 3.6-23.3-3.6-46.6-18.2-64.8q-0.5-0.6-8.6-8.5c-3.9-3.7-8.2-6.4-12.2-8.5-0.5-0.2-0.5-0.9-0.1-1.2q38.7-24.5 61.4-38.7 18-11.2 23.9-16.9 11.6-11 18.8-22.5c14.2-22.9 18.9-51.7 12.7-78.2q-8.7-36.7-38.2-59.7-3.5-2.8-11.7-7.9c-64.8-40.6-120.1-75.1-160.7-100.3-0.3-0.2-0.5-0.6-0.3-1q3.2-6.9 5.8-12.1c8.1-16.1 9.9-33.4 3.1-50q-4.8-11.8-16.5-18.8c-3.7-2.3-6.7-2.5-9.1 1.4q-16.9 28.5-30.2 51.2c-0.1 0.2-0.4 0.3-0.6 0.2z"/><path class="b" d="m225.8 511.9q0 158.6 0 218.8 0 25.8 0.9 31.5c5 33.5 30.7 61.2 64.2 67.4q6.9 1.3 17.8 1.3 5-0.1 17.8 0.1c0.4 0 0.5-0.5 0.2-0.6-4.6-3.1-9-5.6-13.1-9.1q-33.1-28.3-33-72.8 0-5.3 0-236.6 0.1-231.3 0-236.6 0-44.6 33.1-72.8c4.1-3.6 8.5-6 13.1-9.1 0.3-0.2 0.1-0.6-0.2-0.6q-12.9 0.2-17.9 0.1-10.9 0-17.8 1.3c-33.4 6.2-59.1 33.9-64.2 67.3q-0.8 5.7-0.8 31.6-0.1 60.2-0.1 218.8z"/><path class="c" d="m291.6 521.2q0.4-0.1 0.8-0.6 78.5-95 97.4-117.8c0.4-0.5 0.4-1.2 0.1-1.7q-3.9-6.6-6.6-11.9c-9.8-19.7-9.3-47.1 9.1-62.2 3.8-3.1 8.8-5.3 12-0.1 1.3 2.1 3 4.8 4.6 7q5.6 7.5 10.3 15.8 2.9 5.1 6.4 9.1c0.6 0.6 1.6 0.6 2.2 0l77.7-94c0.4-0.5 0.3-1.2-0.3-1.6q-3.9-2.8-6.7-4.5-41.6-25.4-81.3-50.5-11.1-6.9-17.6-9.4c-18.2-6.9-37.5-8-56-1.1-6.6 2.4-14 5.8-19.7 10.3q-27 21-31.7 53.3-0.9 6.2-0.8 33.4 0.1 53.1-0.1 217.8 0 4.4-0.2 8.4c0 0.3 0.2 0.4 0.4 0.3z"/><path class="a" d="m496.4 460.8c7.3-6.4 14.8-11.9 22.5-18.4q4.5-3.8 12.2-9.9 4.8-3.8 32-25.6 2.2-1.7 3.6-4.7 4.5-9.5 42.4-88.4 7.8-16.4 9.5-21.5c4.6-13.9 2.3-32.2-9.5-42-0.2-0.3-0.7-0.2-0.8 0.1l-118.7 200.8c-0.2 0.4-0.2 0.8 0.1 1.2l5.5 8.2c0.3 0.4 0.8 0.5 1.2 0.1z"/><path class="d" d="m482.3 441.6c0.3 0.2 0.6 0.1 0.8-0.2q5.6-9.4 11.3-19.6c3.5-6.4 10-15.9 13.8-23q8.9-16.5 16.2-28.2c6.9-10.9 13.2-22.7 20.4-34.3 6.3-9.9 13.3-23.6 20.8-34.9 0.3-0.5 0.2-1.1-0.3-1.3l-49.1-30.4c-0.4-0.2-0.8-0.1-1.1 0.2l-81.3 98.3c-0.4 0.5-0.5 1.2-0.1 1.7 3.8 6 6.7 11.3 11.4 17.6q5.6 7.3 10.9 16.4c2.1 3.6 4.6 6.3 6.6 9.8q0.2 0.5 0.5 0.8 1.3 1.5 3.2 4.2 0.7 1 14.5 21.5 0.7 1 1.5 1.4z"/><path class="d" d="m587.1 384.4c-0.3 0.5 0.3 1 0.8 0.7l49.4-40c0.3-0.3 0.3-0.7-0.1-0.9l-23.2-14.4c-0.3-0.1-0.7 0-0.8 0.3z"/><path class="a" d="m397.5 337.3c-13 12.5-11.5 35.4-3 49.7q0.4 0.8 38.4 65.1c25.7 43.5 56.5 96.4 84.9 143.9 0.5 0.8 1.2 1.4 2.1 1.8q14.6 6 36.3 15.5c2.9 1.3 5.4 2.3 7.7 4.6q2.9 2.9 6.3 8.4 8.7 14.1 28.1 44.6c5.1 7.9 8.6 12.7 13.2 20.3q2.1 3.6 9.7 15.2 13.6 20.8 20.9 32.7 8.1 12.9 19 20.3c16.9 11.5 38.1 12.7 55.9 2.3q14.8-8.6 20.8-24.5c8.3-22 3.1-48.3-12.1-66.7q-8.6-10.4-18.9-15.8c-19.7-10.5-41.3-8.4-58.5 6.3-6.8 5.7-9.8 16.7-21.3 11.4-2.5-1.1-4.5-3.6-6.1-5.8q-11.9-17.7-82.2-121.4-7-10.3-14-20.7-52.7-78.6-74.3-110.2-13.9-20.3-28.3-41.8c-7.8-11.7-16.2-23.3-23.5-35.1-0.2-0.4-0.8-0.4-1.1-0.1z"/><path class="e" d="m705.3 387.3c0.2-0.3 0.1-0.7-0.2-0.8l-57.3-35.4c-0.2-0.2-0.5-0.1-0.7 0q-12.8 9.6-19.6 15.2-16.1 13.4-19.2 15.6-1.6 1.1-31.1 24.8-0.4 0.3-0.8 0.7c-1.3 1.5-1.9 2.9-3.5 4.5q-8.5 8.2-16.4 14.1c-6.3 4.6-8.8 6.9-14.5 11.6-0.7 0.6-1.1 1.5-1 2.4l10.5 103.9q0 0.5 0.4 0.9l3.1 4.7c0.3 0.5 0.9 0.5 1.3 0.1z"/><path class="f" d="m721.5 507.3c0.5-0.6 0.9-1.4 0.9-2.3q0.6-10.5 0.8-11.9c2.1-12.4 13-18.8 25-15.4 0.6 0.2 1.3 0 1.7-0.5l35.2-38.3c0.4-0.4 0.3-1-0.1-1.4q-6.6-5.2-13.2-9.3-13-7.8-25.7-15.9c-11-7-19.6-12-30.6-19-0.5-0.3-1.2-0.2-1.6 0.2l-151.4 165c-0.6 0.6-0.7 1.5-0.3 2.2 2.5 4 5.7 7.6 8.6 12.1q9.8 15.2 13.9 20.8 4.7 6.3 10.7 16.2 4.4 7.2 12.5 17.9c0.4 0.5 1.2 0.6 1.7 0l67.3-73.3c0.6-0.6 1-1.4 1-2.3q0.2-5 0.2-10.8-0.3-47.3-0.2-66.1c0-4.2-0.2-9.5 0.9-13.2q3.7-11.8 16.8-13.6c13.5-1.8 22.7 9.2 22.4 22.1q-0.7 21.2-0.1 38.7c0 0.7 0.9 1 1.4 0.5z"/><path class="d" d="m291.4 620.7c0 0.4 0.5 0.7 0.8 0.4l153.6-124.2c0.3-0.3 0.4-0.7 0.2-1l-49-83.2c-0.3-0.6-1.1-0.6-1.5-0.1l-103.1 124.5c-0.6 0.8-1 1.8-1 2.9z"/><path class="g" d="m647.2 648.2q3.1-2.4 4.8-3.2 22.3-11.6 46.6-5.2c0.4 0.1 0.8 0 1.2-0.2q22.5-14 29.2-18.2 2.3-1.4 7.2-4.6 6.8-4.5 27.7-17.5 3.6-2.2 9.7-6.2 8.2-5.5 16.2-11.6 3-2.4 4.2-3.8c3-3.6 6.6-6.3 9.3-10.5q4.3-6.7 8.8-15.2 4.1-7.7 6.2-16.3c5.7-22.5 3.3-47.8-8.1-68.2q-3-5.4-3.3-6c-3.1-5.9-7.6-10.9-12.5-15.7-0.4-0.4-1-0.4-1.4 0l-34.8 37.9c-0.3 0.4-0.3 0.8-0.1 1.2q3.8 4.9 3.9 11.1 0.4 14.4 0.1 31.1c-0.2 13.1-10 21.7-23 20.2q-9.9-1.2-14.9-11.6c-2.1-4.3-1.7-8.8-1.8-13.2 0-0.5-0.6-0.7-1-0.3l-2.6 3.1c-0.6 0.7-0.9 1.6-0.9 2.5q-0.3 12.6 0 24.8 0.1 6.4-0.9 9.2c-3 8.8-10.3 14.1-19.5 14.2q-8.9 0.2-15-7-2.2-2.5-2.1-2.5 0-0.1-0.1-0.1 0 0 0 0l-64.9 70.4c-0.5 0.6-0.5 1.3-0.2 1.9l15.6 22.9c0.5 0.8 1.6 0.9 2.2 0.2 4.4-5.1 9.1-9.6 14.2-13.6z"/><path class="a" d="m538.2 524.2c0.2 0.3 0.6 0.1 0.6-0.2l-7.8-76.8c0-0.2-0.4-0.4-0.6-0.2l-28.5 23.1c-0.2 0.1-0.2 0.3-0.1 0.4z"/><path class="a" d="m706.9 467.8c0-4.9-3.9-8.8-8.8-8.8h-0.3c-4.9 0-8.9 3.9-8.9 8.8v88.5c0 4.9 4 8.8 8.9 8.8h0.3c4.9 0 8.8-3.9 8.8-8.8z"/><path class="a" d="m751.2 496.3c0-4.7-3.9-8.6-8.6-8.6h-0.6c-4.7 0-8.5 3.9-8.5 8.6v31.6c0 4.7 3.8 8.5 8.5 8.5h0.6c4.7 0 8.6-3.8 8.6-8.5z"/><path class="e" d="m316.4 808.8q6.7-6.7 17.3-18.3 36.2-39.5 50.8-55.3 8.8-9.5 10.3-11.1c9-9.3 15.8-17.5 25.4-27.9q28.1-30.4 68.6-75.1 5.5-6 9.2-9.6c0.3-0.3 0.5-0.7 0.4-1.1q-0.1-1.5-1.1-4.6-4.7-13.9-13.8-43-1.9-6-4.6-10.9-7.1-13-10.8-18.7c-5.8-9-9.3-16-15.7-27-0.3-0.5-1.1-0.6-1.6-0.2q-5.7 5.2-12.3 10.5-76.3 61.8-145.8 117.9c-0.8 0.7-1.3 1.6-1.3 2.6q-0.1 60.3 0.2 114.8 0 18.6 7.9 34.2c4.1 8.1 9.2 16.5 16.3 22.8 0.2 0.2 0.5 0.2 0.6 0z"/><path class="a" d="m506.5 599.2c0-0.1-0.1-0.1-0.2 0-0.1 0-0.2 0.1-0.1 0.2q4.6 12.6 9.2 26.9c6.1 19.5 11.2 33.8 19 57.5 2.2 6.8 4.7 12.5 6.4 18.2 2.2 7.4-1 14.9-8.8 16.3-2.4 0.4-6.1 0.2-8.9 0.5-21.5 2.8-37 18.6-41.4 39.7-4.8 23.9 2.9 47.8 20.1 64.7 12.7 12.5 30.6 18.5 47.9 15 20.1-4 33.9-19.7 38.2-39.5q3.8-17.1-2-34.9c-6-18.8-13.4-37.3-21-58q-15.1-41.2-26-70.7c-2.4-6.4-1.7-10.2 0.7-16.2 0.1-0.5-0.1-0.9-0.5-1.1q-22.3-9.3-25.3-10.6c-4.2-1.8-4.8-5-7.3-8z"/><path class="f" d="m565.3 675.1c0.3 0.7 1.3 0.7 1.6 0q4.9-6.3 11.1-12.1 1.6-1.6 0.4-3.6-7.5-12.5-19.2-29.7c-2.7-4-4.6-5.6-8.5-7.3-0.6-0.2-1.2 0-1.4 0.6q-1.6 4-1 7.3 0.1 0.2 0.2 0.4z"/><path class="f" d="m446.9 795q5.7-3.7 11.6-7.5 6.3-4.2 10.2-6.1c0.5-0.2 0.9-0.8 0.9-1.4q-0.1-7.6 0-12.4 0.4-16.8 9.2-30.8c4.7-7.5 9.6-14.2 16.5-18.5q15.9-10 34.4-10.7c0.6-0.1 1.1-0.7 0.9-1.3l-27.7-83.7c-0.1-0.2-0.4-0.2-0.5-0.1l-177.4 193.2c-0.2 0.3-0.2 0.8 0.1 1 19.6 13.9 42.6 17.9 65.5 10.5q6.2-2 7.1-2.3 5.4-1.8 7.5-3.3 7.6-5.3 11.6-7.7c5.6-3.3 10.7-6.9 15.9-9.7q5.5-3 7-4.4 0.1-0.2 7.2-4.8z"/><path class="g" d="m601.2 698c0.8-0.4 1-1.4 0.5-2.1l-15.4-24.2c-0.6-0.9-1.8-1-2.5-0.2l-13.7 14.9c-0.4 0.4-0.5 1.1-0.3 1.6l8.5 22.4c0.3 0.9 1.4 1.3 2.3 0.8z"/><path class="a" d="m540.8 561.7c0-8.5-6.9-15.4-15.3-15.4-8.5 0-15.4 6.9-15.4 15.4 0 8.5 6.9 15.3 15.4 15.3 8.4 0 15.3-6.8 15.3-15.3z"/><path class="a" d="m667.4 669.9c-17.9 8.9-23.9 33.4-13.3 54.7 10.6 21.4 33.8 31.4 51.7 22.5 17.9-8.8 23.9-33.4 13.3-54.7-10.6-21.4-33.7-31.4-51.7-22.5z"/><path class="f" d="m633.3 512q-0.1 15.9 0 19c0.4 10.9 8.9 19.7 20 19.7 11 0.1 19.6-8.7 20-19.6q0.2-3.1 0.2-19 0-15.9-0.1-19c-0.4-10.9-8.9-19.7-19.9-19.7-11.1-0.1-19.6 8.7-20.1 19.6q-0.1 3.1-0.1 19z"/><path class="a" d="m662.5 493c0-4.8-3.9-8.7-8.7-8.7h-0.7c-4.8 0-8.7 3.9-8.7 8.7l-0.1 37.7c0 4.9 3.9 8.8 8.8 8.8h0.6c4.8 0 8.7-3.9 8.7-8.7z"/><path class="a" d="m529.8 561.7c0-2.4-2-4.4-4.4-4.4-2.4 0-4.4 2-4.4 4.4 0 2.4 2 4.4 4.4 4.4 2.4 0 4.4-2 4.4-4.4z"/><path class="a" d="m518.5 738.7c-18.5 7.5-26.1 31.6-17.1 53.7 9 22.1 31.3 33.9 49.8 26.4 18.4-7.5 26.1-31.6 17-53.7-9-22.1-31.3-33.9-49.7-26.4z"/><path class="a" d="m672.7 679.5c-12.6 6-16.5 23.9-8.9 39.9 7.7 16 24.1 24.1 36.6 18.1 12.6-6 16.5-23.9 8.8-39.9-7.6-16-24-24.1-36.5-18.1z"/><path class="a" d="m538.6 749.9l-28.6 18.1c-0.7 0.5-1.1 1.2-1.2 2q-1 19.6 12.8 32.6 6.7 6.2 14.5 7.2 15.1 1.9 22.2-12.3c5.3-10.5 2.7-24.3-3.2-34.4q-5-8.4-14.4-13.3c-0.6-0.4-1.5-0.3-2.1 0.1z"/><path class="h" d="m571.1 291c0.2 0.1 0.5 0 0.6-0.2q13.3-22.7 30.2-51.2c2.4-3.9 5.4-3.7 9.1-1.4q11.7 7 16.5 18.8c6.8 16.6 5 33.9-3.1 50q-2.6 5.2-5.8 12.1c-0.2 0.4 0 0.8 0.3 1 40.6 25.2 95.9 59.7 160.7 100.3q8.2 5.1 11.7 7.9 29.5 23 38.2 59.7c6.2 26.5 1.5 55.3-12.7 78.2q-7.2 11.5-18.8 22.5-5.9 5.7-23.9 16.9-22.7 14.2-61.4 38.7c-0.4 0.3-0.4 1 0.1 1.2 4 2.1 8.3 4.8 12.2 8.5q8.1 7.9 8.6 8.5c14.6 18.2 21.8 41.5 18.2 64.8-4.5 28.3-25.5 48.9-54.1 51.9-25.7 2.7-48.6-10.2-62.7-31.5q-12.9-19.4-26.4-40.8c-0.2-0.4-0.7-0.5-1-0.2l-24.4 15.5c-0.2 0.1-0.3 0.4-0.2 0.6 4.1 11.4 10.6 27.8 14.6 42.5q5.2 19.3 0.3 39c-7 27.6-30.4 46-58.8 45.8-33-0.3-58.9-26.7-67.3-57.4-0.1-0.3-0.4-0.4-0.7-0.2q-5.7 3.7-39.8 25.4-23 14.7-27.9 16.6-9.8 4-20.9 6.1-7.4 1.4-21.6 1.3-21.3-0.1-49.2 0-15 0.1-23.3-1.5c-36.8-7.4-65.3-36.7-72-73.3q-1.5-8.4-1.5-28.3 0.2-330.8 0.1-455.4 0-18.5 1.6-27.2 5.3-29.2 27.5-50 20.9-19.6 50.4-23.5 4.8-0.6 19-0.6 17 0.1 47.4 0 17.5-0.1 24.2 1.1 14 2.6 23.2 7.3 6.8 3.5 23.9 14.1 27.3 17.1 54.2 33.8 43.7 27.2 84.7 52.6zm-345.3 220.9q0 158.6 0 218.8 0 25.8 0.9 31.5c5 33.5 30.7 61.1 64.2 67.4q6.9 1.3 17.8 1.2 5 0 17.8 0.2c0.4 0 0.5-0.5 0.2-0.6-4.6-3.1-9-5.6-13.1-9.1q-33.1-28.3-33-72.8 0-5.3 0-236.6 0.1-231.3 0-236.6 0-44.6 33.1-72.8c4.1-3.6 8.5-6 13.1-9.1 0.3-0.2 0.1-0.6-0.2-0.6q-12.9 0.2-17.9 0.1-10.9 0-17.8 1.3c-33.4 6.2-59.1 33.9-64.2 67.3q-0.8 5.7-0.8 31.5-0.1 60.3-0.1 218.9zm65.8 9.3q0.4-0.1 0.8-0.6 78.5-95 97.4-117.8c0.4-0.5 0.4-1.2 0.1-1.7q-3.9-6.6-6.6-11.9c-9.8-19.7-9.3-47.1 9.1-62.2 3.8-3.1 8.8-5.3 12-0.1 1.3 2.1 3 4.8 4.6 7q5.6 7.5 10.3 15.8 2.9 5.1 6.4 9.1c0.6 0.6 1.6 0.6 2.2 0l77.7-94c0.4-0.5 0.3-1.2-0.2-1.6q-4-2.8-6.8-4.5-41.6-25.4-81.3-50.5-11.1-6.9-17.6-9.4c-18.2-6.9-37.5-8-56-1.1-6.6 2.4-14 5.8-19.7 10.3q-27 21-31.6 53.3-1 6.2-0.9 33.4 0.1 53.1-0.1 217.8 0 4.4-0.2 8.4c0 0.3 0.2 0.4 0.4 0.3zm204.8-60.5c7.3-6.3 14.8-11.8 22.5-18.3q4.5-3.8 12.2-9.9 4.8-3.8 32-25.6 2.2-1.7 3.6-4.7 4.5-9.5 42.4-88.4 7.8-16.4 9.5-21.5c4.6-13.9 2.3-32.2-9.5-42-0.2-0.3-0.7-0.2-0.8 0.1l-118.7 200.8c-0.2 0.4-0.2 0.8 0.1 1.2l5.5 8.2c0.3 0.4 0.8 0.5 1.2 0.1zm-14.1-19.1c0.3 0.2 0.6 0.1 0.8-0.2q5.6-9.4 11.2-19.6c3.6-6.4 10.1-15.9 13.9-23q8.9-16.5 16.2-28.2c6.9-10.9 13.2-22.7 20.4-34.3 6.3-9.9 13.3-23.6 20.8-34.9 0.3-0.5 0.2-1.1-0.3-1.3l-49.1-30.4c-0.4-0.2-0.8-0.1-1.1 0.2l-81.3 98.3c-0.4 0.5-0.5 1.2-0.1 1.7 3.8 6 6.6 11.3 11.4 17.6q5.6 7.3 10.9 16.4c2.1 3.6 4.6 6.3 6.6 9.8q0.2 0.5 0.5 0.8 1.3 1.5 3.2 4.2 0.7 1 14.5 21.5 0.7 1 1.5 1.4zm104.8-57.2c-0.3 0.5 0.3 1 0.8 0.6l49.4-39.9c0.3-0.3 0.3-0.7-0.1-0.9l-23.2-14.4c-0.3-0.1-0.7 0-0.8 0.2zm-189.6-47.1c-13 12.5-11.4 35.5-3 49.7q0.5 0.8 38.4 65.2c25.7 43.4 56.6 96.3 84.9 143.8 0.5 0.8 1.2 1.4 2.1 1.8q14.6 6 36.3 15.6c3 1.2 5.5 2.2 7.7 4.5q2.9 2.9 6.3 8.5 8.7 14 28.2 44.5c5 7.9 8.5 12.8 13.1 20.4q2.2 3.5 9.7 15.1 13.6 20.9 21 32.7 8 13 18.9 20.3c16.9 11.5 38.2 12.8 55.9 2.4q14.8-8.7 20.8-24.5c8.3-22.1 3.1-48.4-12-66.7q-8.7-10.5-18.9-15.9c-19.7-10.4-41.4-8.3-58.6 6.3-6.7 5.7-9.7 16.8-21.3 11.4-2.4-1.1-4.5-3.5-6-5.8q-12-17.6-82.2-121.3-7.1-10.4-14-20.8-52.7-78.6-74.4-110.1-13.9-20.4-28.2-41.8c-7.9-11.8-16.3-23.3-23.6-35.1-0.2-0.4-0.8-0.5-1.1-0.2zm307.8 50c0.2-0.2 0.2-0.6-0.1-0.8l-57.4-35.4c-0.2-0.1-0.4-0.1-0.6 0q-12.9 9.6-19.6 15.2-16.2 13.5-19.3 15.7-1.5 1-31.1 24.8-0.4 0.3-0.7 0.7c-1.4 1.5-1.9 2.8-3.6 4.4q-8.5 8.3-16.4 14.1c-6.3 4.6-8.8 7-14.5 11.6-0.7 0.6-1.1 1.5-1 2.5l10.5 103.8q0.1 0.5 0.4 1l3.2 4.7c0.3 0.4 0.8 0.4 1.2 0.1zm16.2 120c0.6-0.6 0.9-1.5 0.9-2.3q0.6-10.5 0.8-11.9c2.1-12.5 13-18.8 25-15.4 0.7 0.1 1.3 0 1.7-0.5l35.2-38.4c0.4-0.4 0.4-1-0.1-1.3q-6.5-5.2-13.2-9.3-12.9-7.8-25.6-15.9c-11.1-7-19.7-12-30.7-19-0.5-0.3-1.2-0.3-1.6 0.2l-151.4 165c-0.6 0.6-0.7 1.5-0.2 2.2 2.4 4 5.6 7.6 8.5 12.1q9.8 15.2 13.9 20.8 4.7 6.3 10.7 16.2 4.4 7.2 12.5 17.8c0.4 0.6 1.3 0.6 1.8 0.1l67.3-73.3c0.5-0.6 0.9-1.4 0.9-2.3q0.2-5.1 0.2-10.9-0.3-47.2-0.2-66c0-4.2-0.2-9.6 1-13.2q3.7-11.8 16.7-13.6c13.5-1.8 22.8 9.2 22.4 22.1q-0.6 21.2-0.1 38.6c0.1 0.8 0.9 1.1 1.4 0.6zm-430 113.3c0 0.5 0.5 0.7 0.8 0.4l153.6-124.2c0.3-0.2 0.4-0.7 0.2-1l-49-83.2c-0.3-0.6-1.1-0.6-1.6-0.1l-103 124.5c-0.6 0.8-1 1.8-1 2.9zm355.8 27.5q3-2.4 4.7-3.3 22.4-11.6 46.7-5.2c0.4 0.1 0.8 0.1 1.1-0.1q22.5-14 29.2-18.2 2.4-1.5 7.3-4.7 6.8-4.4 27.7-17.4 3.6-2.2 9.7-6.3 8.2-5.5 16.1-11.6 3-2.3 4.2-3.7c3.1-3.7 6.7-6.4 9.4-10.6q4.2-6.7 8.8-15.1 4-7.7 6.2-16.3c5.7-22.6 3.3-47.9-8.1-68.2q-3-5.5-3.3-6c-3.2-5.9-7.6-11-12.5-15.8-0.4-0.4-1.1-0.3-1.4 0.1l-34.8 37.9c-0.3 0.3-0.4 0.8-0.1 1.1q3.7 4.9 3.9 11.1 0.4 14.5 0.1 31.1c-0.2 13.2-10 21.8-23 20.2q-9.9-1.1-14.9-11.6c-2.1-4.3-1.8-8.8-1.9-13.2 0-0.5-0.6-0.7-0.9-0.3l-2.6 3.2c-0.6 0.7-0.9 1.5-0.9 2.5q-0.3 12.5-0.1 24.7 0.1 6.4-0.8 9.3c-3 8.7-10.3 14-19.5 14.2q-8.9 0.1-15-7.1-2.2-2.5-2.2-2.5 0 0 0-0.1 0 0 0 0.1l-64.9 70.4c-0.5 0.5-0.6 1.3-0.2 1.9l15.6 22.9c0.5 0.7 1.5 0.8 2.1 0.1 4.5-5 9.1-9.6 14.3-13.5zm-109.1-124c0.2 0.2 0.7 0.1 0.6-0.3l-7.8-76.7c0-0.3-0.3-0.4-0.5-0.3l-28.5 23.1c-0.2 0.2-0.2 0.3-0.1 0.5zm168.7-56.4c0-4.9-3.9-8.9-8.8-8.9h-0.3c-4.9 0-8.9 4-8.9 8.9v88.5c0 4.8 4 8.8 8.9 8.8h0.3c4.9 0 8.8-4 8.8-8.8zm44.3 28.4c0-4.7-3.8-8.5-8.6-8.5h-0.6c-4.7 0-8.5 3.8-8.5 8.5v31.7c0 4.7 3.8 8.5 8.5 8.5h0.6c4.8 0 8.6-3.8 8.6-8.5zm-434.8 312.5q6.7-6.7 17.3-18.3 36.2-39.5 50.8-55.3 8.8-9.5 10.3-11.1c9-9.3 15.8-17.5 25.4-27.9q28.1-30.4 68.6-75.1 5.5-6 9.2-9.6c0.3-0.3 0.5-0.7 0.4-1.1q-0.1-1.5-1.1-4.7-4.7-13.9-13.8-43-1.9-5.9-4.6-10.8-7.1-13-10.8-18.8c-5.8-8.9-9.3-15.9-15.7-26.9-0.3-0.5-1.1-0.6-1.6-0.2q-5.7 5.2-12.3 10.5-76.3 61.7-145.8 117.9c-0.8 0.7-1.3 1.6-1.3 2.6q-0.1 60.3 0.2 114.7 0 18.7 7.9 34.2c4.1 8.2 9.2 16.5 16.3 22.9 0.2 0.2 0.5 0.2 0.6 0zm190.1-209.6c0-0.1-0.1-0.1-0.2 0-0.1 0-0.1 0.1-0.1 0.2q4.7 12.6 9.2 26.9c6.1 19.5 11.2 33.8 19 57.5 2.2 6.8 4.7 12.5 6.4 18.2 2.2 7.4-1 14.9-8.8 16.2-2.4 0.5-6 0.3-8.9 0.6-21.5 2.8-37 18.6-41.3 39.7-4.9 23.8 2.8 47.8 20 64.7 12.7 12.5 30.6 18.5 47.9 15 20.1-4 33.9-19.7 38.2-39.6q3.8-17-1.9-34.8c-6.1-18.8-13.5-37.3-21.1-58.1q-15.1-41.1-26-70.6c-2.4-6.4-1.7-10.2 0.7-16.3 0.1-0.4-0.1-0.8-0.5-1q-22.3-9.3-25.3-10.6c-4.2-1.8-4.8-5-7.3-8zm58.9 75.9c0.2 0.7 1.2 0.7 1.5 0q4.9-6.3 11.1-12.2 1.6-1.5 0.4-3.5-7.4-12.5-19.2-29.8c-2.7-3.9-4.6-5.5-8.5-7.2-0.6-0.3-1.2 0-1.4 0.5q-1.6 4.1-0.9 7.4 0 0.2 0.1 0.4zm-118.5 119.9q5.8-3.7 11.6-7.5 6.4-4.2 10.2-6.1c0.5-0.3 0.9-0.8 0.9-1.4q-0.1-7.6 0-12.4 0.4-16.8 9.2-30.9c4.7-7.5 9.6-14.1 16.5-18.4q16-10.1 34.4-10.8c0.7 0 1.1-0.6 0.9-1.3l-27.7-83.6c-0.1-0.2-0.4-0.3-0.5-0.1l-177.4 193.2c-0.2 0.3-0.2 0.8 0.1 1 19.6 13.9 42.6 17.9 65.5 10.5q6.2-2 7.2-2.3 5.3-1.8 7.4-3.3 7.6-5.3 11.7-7.7c5.5-3.4 10.6-7 15.8-9.7q5.5-3.1 7.1-4.5 0.1-0.1 7.2-4.7zm154.2-97c0.8-0.4 1-1.4 0.5-2.1l-15.4-24.3c-0.5-0.8-1.8-0.9-2.4-0.2l-13.8 15c-0.4 0.4-0.5 1-0.3 1.6l8.5 22.4c0.4 0.9 1.5 1.3 2.3 0.7z"/><path class="i" d="m280.6 511.9q0 231.3 0 236.6-0.1 44.5 33 72.8c4.1 3.5 8.5 6 13.1 9.1 0.3 0.1 0.2 0.6-0.2 0.6q-12.8-0.2-17.8-0.1-10.9 0-17.8-1.3c-33.5-6.2-59.2-33.9-64.2-67.4q-0.9-5.7-0.9-31.5 0-60.2 0-218.8 0-158.6 0.1-218.8 0-25.9 0.8-31.6c5.1-33.4 30.8-61.1 64.2-67.3q6.9-1.3 17.8-1.3 5 0.1 17.9-0.1c0.3 0 0.5 0.5 0.2 0.6-4.6 3.1-9 5.6-13.1 9.1q-33.1 28.2-33.1 72.8 0.1 5.3 0 236.6z"/><path class="j" d="m291.6 521.2c-0.2 0.1-0.4 0-0.4-0.3q0.2-4 0.2-8.4 0.2-164.7 0.1-217.8-0.1-27.2 0.8-33.4 4.7-32.3 31.7-53.3c5.7-4.5 13.1-7.9 19.7-10.3 18.5-6.9 37.8-5.8 56 1.1q6.5 2.5 17.6 9.4 39.7 25.1 81.3 50.5 2.8 1.7 6.8 4.5c0.5 0.4 0.6 1.1 0.2 1.6l-77.7 94c-0.6 0.6-1.6 0.6-2.2 0q-3.5-4-6.4-9.1-4.7-8.3-10.3-15.8c-1.6-2.2-3.3-4.9-4.6-7-3.2-5.2-8.2-3-12 0.1-18.4 15.1-18.9 42.5-9.1 62.2q2.7 5.3 6.6 11.9c0.3 0.5 0.3 1.2-0.1 1.7q-18.9 22.8-97.4 117.8-0.4 0.5-0.8 0.6z"/><path class="k" d="m496.4 460.8c-0.4 0.3-0.9 0.2-1.2-0.2l-5.5-8.2c-0.3-0.4-0.3-0.8-0.1-1.2l118.7-200.8c0.1-0.3 0.6-0.4 0.8-0.1 11.8 9.8 14.1 28.1 9.5 42q-1.7 5.1-9.5 21.5-37.9 78.9-42.4 88.4-1.4 3-3.6 4.7-27.2 21.8-32 25.6-7.7 6.1-12.2 9.9c-7.7 6.5-15.2 12-22.5 18.3z"/><path class="l" d="m482.3 441.6q-0.8-0.4-1.5-1.4-13.8-20.5-14.5-21.5-1.9-2.7-3.2-4.2-0.3-0.3-0.5-0.8c-2-3.5-4.5-6.2-6.6-9.8q-5.3-9.1-10.9-16.4c-4.7-6.3-7.6-11.6-11.4-17.6-0.4-0.5-0.3-1.2 0.1-1.7l81.3-98.3c0.3-0.3 0.7-0.4 1.1-0.2l49.1 30.4c0.5 0.2 0.6 0.8 0.3 1.3-7.5 11.3-14.5 25-20.8 34.9-7.2 11.6-13.5 23.4-20.4 34.3q-7.3 11.7-16.2 28.2c-3.8 7.1-10.3 16.6-13.8 23.1q-5.7 10.1-11.3 19.5c-0.2 0.3-0.5 0.4-0.8 0.2z"/><path class="l" d="m587.1 384.4l26.1-54.3c0.1-0.3 0.5-0.4 0.8-0.3l23.2 14.4c0.4 0.2 0.4 0.6 0.1 0.9l-49.4 40c-0.5 0.3-1.1-0.2-0.8-0.7z"/><path class="k" d="m397.5 337.3c0.3-0.3 0.9-0.3 1.1 0.1 7.3 11.8 15.7 23.4 23.5 35.1q14.4 21.5 28.3 41.8 21.6 31.6 74.3 110.2 7 10.4 14 20.7 70.3 103.7 82.2 121.4c1.6 2.2 3.6 4.7 6.1 5.8 11.5 5.3 14.5-5.7 21.3-11.4 17.2-14.7 38.8-16.8 58.5-6.3q10.3 5.4 18.9 15.8c15.2 18.4 20.4 44.7 12.1 66.7q-6 15.9-20.8 24.5c-17.8 10.4-39 9.2-55.9-2.3q-10.9-7.4-19-20.3-7.3-11.9-20.9-32.8-7.6-11.5-9.7-15.1c-4.6-7.6-8.1-12.4-13.2-20.4q-19.4-30.4-28.1-44.5-3.4-5.5-6.3-8.5c-2.3-2.2-4.8-3.2-7.7-4.5q-21.7-9.5-36.3-15.5c-0.9-0.4-1.6-1-2.1-1.8-28.4-47.5-59.2-100.5-84.9-143.9q-38-64.3-38.4-65.1c-8.5-14.3-10-37.2 3-49.7zm143.3 224.4c0-8.5-6.9-15.4-15.3-15.4-8.5 0-15.4 6.9-15.4 15.4 0 8.5 6.9 15.3 15.4 15.3 8.4 0 15.3-6.8 15.3-15.3zm126.6 108.1c-17.9 8.9-23.9 33.5-13.3 54.8 10.6 21.4 33.8 31.4 51.7 22.5 17.9-8.9 23.9-33.4 13.3-54.7-10.6-21.4-33.7-31.4-51.7-22.5z"/><path class="m" d="m705.3 387.3l-149 162.3c-0.4 0.4-1 0.4-1.3-0.1l-3.1-4.7q-0.4-0.4-0.4-0.9l-10.5-103.9c-0.1-0.9 0.3-1.8 1-2.4 5.7-4.7 8.2-7 14.5-11.6q7.9-5.9 16.4-14.1c1.7-1.6 2.2-3 3.5-4.5q0.4-0.4 0.8-0.7 29.5-23.7 31.1-24.8 3.1-2.2 19.2-15.6 6.8-5.6 19.6-15.2c0.2-0.1 0.5-0.2 0.7 0l57.3 35.4c0.3 0.1 0.4 0.5 0.2 0.8z"/><path class="n" d="m721.5 507.3l-2.2 2.4c-0.5 0.5-1.4 0.2-1.4-0.5q-0.6-17.5 0.1-38.7c0.3-12.9-8.9-23.9-22.4-22.1q-13.1 1.8-16.8 13.6c-1.1 3.7-0.9 9-0.9 13.2q-0.1 18.8 0.2 66.1 0 5.8-0.2 10.8c0 0.9-0.4 1.7-1 2.3l-67.3 73.3c-0.5 0.6-1.3 0.5-1.7 0q-8.1-10.7-12.5-17.9-6-9.9-10.7-16.2-4.1-5.6-13.9-20.8c-2.9-4.5-6.1-8-8.6-12.1-0.4-0.7-0.3-1.6 0.3-2.2l151.4-165c0.4-0.4 1.1-0.5 1.6-0.2 11 7 19.6 12 30.6 19q12.7 8.1 25.7 15.9 6.6 4.1 13.2 9.3c0.4 0.4 0.5 1 0.1 1.4l-35.2 38.3c-0.4 0.5-1.1 0.7-1.7 0.5-12-3.4-22.9 3-25 15.4q-0.2 1.4-0.8 11.9c0 0.9-0.4 1.7-0.9 2.3zm-88.2 4.7q-0.1 15.9 0 19c0.4 10.9 8.9 19.7 20 19.7 11 0.1 19.6-8.7 20-19.6q0.2-3.1 0.2-19 0-15.9-0.1-19c-0.4-10.9-8.9-19.7-19.9-19.7-11.1-0.1-19.6 8.7-20.1 19.6q-0.1 3.1-0.1 19z"/><path class="l" d="m291.4 620.7v-80.8c0-1 0.4-2 1-2.8l103.1-124.5c0.4-0.5 1.2-0.5 1.5 0.1l49 83.2c0.2 0.3 0.1 0.7-0.2 1l-153.6 124.2c-0.3 0.3-0.8 0-0.8-0.4z"/><path class="o" d="m647.2 648.2c-5.1 4-9.8 8.5-14.3 13.6-0.5 0.7-1.6 0.6-2.1-0.2l-15.6-22.9c-0.3-0.6-0.3-1.3 0.2-1.9l64.9-70.4q0 0 0 0 0.1 0 0.1 0.1-0.1 0 2.1 2.5 6.1 7.2 15 7c9.2-0.1 16.5-5.4 19.5-14.2q1-2.8 0.9-9.2-0.3-12.2 0-24.8c0-0.9 0.3-1.8 0.9-2.5l2.6-3.1c0.4-0.4 1-0.2 1 0.3 0.1 4.4-0.3 8.9 1.8 13.2q5 10.4 14.9 11.6c13 1.5 22.8-7.1 23-20.2q0.3-16.7-0.1-31.1-0.1-6.2-3.9-11.1c-0.2-0.4-0.2-0.8 0.1-1.2l34.8-37.9c0.4-0.4 1-0.4 1.4 0 4.9 4.8 9.4 9.8 12.5 15.7q0.3 0.6 3.3 6c11.4 20.4 13.8 45.7 8.1 68.2q-2.1 8.6-6.2 16.3-4.5 8.5-8.8 15.2c-2.7 4.2-6.3 6.9-9.3 10.5q-1.2 1.4-4.2 3.8-8 6.1-16.2 11.6-6.1 4-9.7 6.2-20.9 13-27.7 17.5-4.9 3.2-7.2 4.6-6.7 4.2-29.2 18.2c-0.4 0.2-0.8 0.3-1.2 0.2q-24.3-6.4-46.6 5.2-1.7 0.8-4.8 3.2z"/><path class="k" d="m538.2 524.2l-36.4-53.7c-0.1-0.1-0.1-0.3 0.1-0.4l28.5-23.1c0.2-0.2 0.6 0 0.6 0.2l7.8 76.8c0 0.3-0.4 0.5-0.6 0.2z"/><path fill-rule="evenodd" class="k" d="m697.8 459h0.3c4.9 0 8.8 3.9 8.8 8.8v88.5c0 4.9-3.9 8.8-8.8 8.8h-0.3c-4.9 0-8.9-3.9-8.9-8.8v-88.5c0-4.9 4-8.8 8.9-8.8z"/><path class="h" d="m653.5 473.4c11 0 19.5 8.8 19.9 19.7q0.1 3.1 0.1 19 0 15.9-0.2 19c-0.4 10.9-9 19.7-20 19.6-11.1 0-19.6-8.8-20-19.7q-0.1-3.1 0-19 0-15.9 0.1-19c0.5-10.9 9-19.7 20.1-19.6zm9 19.6c0-4.8-3.9-8.7-8.7-8.7h-0.7c-4.8 0-8.7 3.9-8.7 8.7l-0.1 37.7c0 4.9 3.9 8.8 8.8 8.8h0.6c4.8 0 8.7-3.9 8.7-8.7z"/><path fill-rule="evenodd" class="k" d="m653.1 484.3h0.7c4.8 0 8.7 3.9 8.7 8.7l-0.1 37.8c0 4.8-3.9 8.7-8.7 8.7h-0.6c-4.9 0-8.8-3.9-8.8-8.8l0.1-37.7c0-4.8 3.9-8.7 8.7-8.7z"/><path fill-rule="evenodd" class="k" d="m742 487.7h0.6c4.8 0 8.6 3.9 8.6 8.6v31.6c0 4.7-3.8 8.5-8.6 8.5h-0.6c-4.7 0-8.5-3.8-8.5-8.5v-31.6c0-4.7 3.8-8.6 8.5-8.6z"/><path class="m" d="m316.4 808.8c-0.1 0.2-0.4 0.2-0.6 0-7.1-6.3-12.2-14.7-16.3-22.8q-7.9-15.6-7.9-34.2-0.3-54.5-0.2-114.8c0-1 0.5-1.9 1.3-2.6q69.5-56.1 145.8-117.9 6.6-5.3 12.3-10.5c0.5-0.4 1.3-0.3 1.6 0.2 6.4 11 9.9 18 15.7 27q3.7 5.7 10.8 18.7 2.7 4.9 4.5 10.9 9.2 29.1 13.9 43 1 3.1 1.1 4.6c0.1 0.4-0.1 0.8-0.4 1.1q-3.7 3.6-9.2 9.6-40.5 44.7-68.6 75.1c-9.6 10.4-16.4 18.6-25.4 27.9q-1.5 1.6-10.3 11.1-14.6 15.8-50.8 55.3-10.6 11.6-17.3 18.3z"/><path class="h" d="m540.8 561.7c0 8.5-6.9 15.3-15.3 15.3-8.5 0-15.4-6.8-15.4-15.3 0-8.5 6.9-15.4 15.4-15.4 8.4 0 15.3 6.9 15.3 15.4zm-11 0c0-2.4-2-4.4-4.4-4.4-2.4 0-4.4 2-4.4 4.4 0 2.4 2 4.4 4.4 4.4 2.4 0 4.4-2 4.4-4.4z"/><path fill-rule="evenodd" class="k" d="m525.4 566.1c-2.4 0-4.4-2-4.4-4.4 0-2.4 2-4.4 4.4-4.4 2.4 0 4.4 2 4.4 4.4 0 2.4-2 4.4-4.4 4.4z"/><path class="k" d="m506.5 599.2c2.5 3 3.1 6.2 7.3 8q3 1.3 25.3 10.6c0.4 0.2 0.6 0.6 0.5 1.1-2.4 6-3.1 9.8-0.7 16.2q10.9 29.5 26 70.7c7.6 20.7 15 39.2 21 58q5.8 17.8 2 34.9c-4.3 19.8-18.1 35.5-38.2 39.5-17.3 3.5-35.2-2.5-47.9-15-17.2-16.9-24.9-40.8-20.1-64.7 4.4-21.1 19.9-36.9 41.4-39.7 2.8-0.3 6.5-0.1 8.9-0.5 7.8-1.4 11-8.9 8.8-16.3-1.7-5.7-4.2-11.4-6.4-18.2-7.8-23.7-12.9-38-19-57.5q-4.6-14.3-9.2-26.9c-0.1-0.1 0-0.2 0.1-0.2 0.1-0.1 0.2-0.1 0.2 0zm12 139.5c-18.5 7.5-26.1 31.6-17.1 53.7 9 22.1 31.3 33.9 49.8 26.4 18.4-7.5 26.1-31.6 17-53.7-9-22.1-31.3-33.9-49.7-26.4z"/><path class="n" d="m565.3 675.1l-16.8-44.4q-0.1-0.2-0.2-0.4-0.6-3.3 1-7.3c0.2-0.6 0.8-0.8 1.4-0.6 3.9 1.7 5.8 3.3 8.5 7.3q11.7 17.2 19.2 29.7 1.2 2-0.4 3.6-6.2 5.8-11.1 12.1c-0.3 0.7-1.3 0.7-1.6 0z"/><path class="n" d="m446.9 795q-7.1 4.6-7.2 4.8-1.5 1.4-7 4.4c-5.2 2.8-10.3 6.4-15.9 9.7q-4 2.4-11.6 7.7-2.1 1.5-7.5 3.3-0.9 0.3-7.1 2.3c-22.9 7.4-45.9 3.4-65.5-10.5-0.3-0.2-0.3-0.7-0.1-1l177.4-193.2c0.1-0.1 0.4-0.1 0.5 0.1l27.7 83.7c0.2 0.6-0.3 1.2-0.9 1.3q-18.5 0.7-34.4 10.7c-6.9 4.3-11.8 11-16.5 18.5q-8.8 14-9.2 30.8-0.1 4.8 0 12.4c0 0.6-0.4 1.2-0.9 1.4q-3.9 1.9-10.2 6.1-5.9 3.8-11.6 7.5z"/><path class="h" d="m667.4 669.9c18-8.9 41.1 1.1 51.7 22.5 10.6 21.3 4.6 45.9-13.3 54.8-17.9 8.8-41.1-1.2-51.7-22.6-10.6-21.3-4.6-45.8 13.3-54.7zm5.3 9.6c-12.6 6-16.5 23.9-8.9 39.9 7.7 16 24.1 24.1 36.6 18.1 12.6-6 16.5-23.9 8.8-39.9-7.6-16-24-24.1-36.5-18.1z"/><path class="o" d="m601.2 698l-20.6 13.2c-0.9 0.5-2 0.1-2.3-0.8l-8.5-22.4c-0.2-0.5-0.1-1.2 0.3-1.6l13.7-14.9c0.7-0.8 1.9-0.7 2.5 0.2l15.4 24.2c0.5 0.7 0.3 1.7-0.5 2.1z"/><path class="h" d="m518.5 738.7c18.4-7.5 40.7 4.3 49.7 26.4 9.1 22.1 1.4 46.2-17 53.7-18.5 7.5-40.8-4.3-49.8-26.4-9-22.1-1.4-46.2 17.1-53.7zm20.1 11.2l-28.6 18.1c-0.7 0.5-1.1 1.2-1.2 2q-1 19.6 12.8 32.6 6.7 6.2 14.5 7.2 15.1 1.9 22.2-12.3c5.3-10.5 2.7-24.3-3.2-34.4q-5-8.4-14.4-13.3c-0.6-0.4-1.5-0.4-2.1 0.1z"/></svg>